<?xml version="1.0" standalone="no"?>
<!DOCTYPE svg PUBLIC "-//W3C//DTD SVG 1.1//EN" "http://www.w3.org/Graphics/SVG/1.1/DTD/svg11.dtd" >
<svg xmlns="http://www.w3.org/2000/svg">
<metadata>
<json>
<![CDATA[
{
	"fontFamily": "sellercommerce",
	"majorVersion": 1,
	"minorVersion": 0,
	"version": "Version 1.0",
	"fontId": "sellercommerce",
	"psName": "sellercommerce",
	"subFamily": "Regular",
	"fullName": "sellercommerce",
	"description": "Font generated by IcoMoon."
}
]]>
</json>
</metadata>
<defs>
<font id="sellercommerce" horiz-adv-x="1024">
<font-face units-per-em="1024" ascent="960" descent="-64" />
<missing-glyph horiz-adv-x="1024" />
<glyph unicode="&#x20;" horiz-adv-x="512" d="" />
<glyph unicode="&#xe900;" glyph-name="assets" data-tags="assets" horiz-adv-x="1182" d="M1050.23 960h-918.922c-72.468 0-131.308-57.344-131.308-128v-768c0-70.656 58.762-128 131.308-128h918.922c72.468 0.236 131.072 57.423 131.308 128v768c0 70.656-58.762 128-131.308 128zM1050.23 64h-918.922v640h918.922v-640z" />
<glyph unicode="&#xe901;" glyph-name="settings" data-tags="settings" d="M903.68 397.952c2.176 16.64 3.2 33.28 3.328 49.92 0.001 0.226 0.001 0.494 0.001 0.762 0 17.381-1.443 34.425-4.217 51.018l0.248-1.796 111.232 84.48c5.961 4.79 9.744 12.080 9.744 20.253 0 4.541-1.168 8.809-3.219 12.521l0.068-0.133-105.344 177.024c-4.84 7.89-13.419 13.073-23.208 13.073-3.243 0-6.354-0.569-9.237-1.613l0.189 0.060-130.944-50.688c-25.65 19.414-54.952 36.187-86.301 48.983l-2.595 0.937-19.84 135.488c-2.128 12.427-12.82 21.766-25.694 21.766-0.192 0-0.384-0.002-0.575-0.006h-210.659c-0.154 0.003-0.336 0.005-0.518 0.005-12.747 0-23.302-9.387-25.128-21.626l-0.017-0.139-19.52-135.68c-31.808-12.8-61.76-29.44-89.088-49.728l-130.944 51.008c-2.752 1.065-5.936 1.681-9.265 1.681-9.819 0-18.385-5.367-22.923-13.328l-0.068-0.13-105.408-177.152c-2.289-3.64-3.648-8.067-3.648-12.811 0-8.152 4.011-15.367 10.166-19.78l0.073-0.050 111.232-84.48c-2.928-15.567-4.603-33.475-4.603-51.774 0-16.976 1.441-33.616 4.208-49.803l-0.246 1.737-111.232-84.48c-5.961-4.79-9.744-12.080-9.744-20.253 0-4.541 1.168-8.809 3.219-12.521l-0.068 0.133 105.344-177.472c6.4-10.88 20.032-15.808 32.256-11.52l130.944 51.2c27.2-20.416 57.088-37.184 88.896-49.92l19.776-135.36c2.112-12.48 13.248-21.76 26.304-21.76h210.688c0.271-0.011 0.589-0.017 0.908-0.017 12.663 0 23.123 9.429 24.742 21.649l0.014 0.127 19.776 135.744c31.744 12.8 61.568 29.632 88.896 49.92l130.944-51.2c2.786-1.093 6.011-1.727 9.385-1.727 9.734 0 18.236 5.274 22.804 13.121l0.068 0.126 105.344 177.28c2.289 3.64 3.648 8.067 3.648 12.811 0 8.152-4.011 15.367-10.166 19.78l-0.073 0.050-109.888 84.48v-0.192zM512.192 255.872c-109.056 0-197.504 86.016-197.504 192 0 106.176 88.512 192.128 197.504 192.128s197.504-85.952 197.504-192c-0.32-106.112-88.64-192-197.696-192.192l0.192 0.064z" />
<glyph unicode="&#xe902;" glyph-name="template" data-tags="template" d="M960 960h-960v-1024h1024v1024h-64zM384 832h64v-64h-64v64zM256 832h63.808v-64h-64l0.192 64zM128 832h64v-64h-64v64zM896 64h-768v640h768v-640zM832 512h-448v128h448zM832 128h-448v320h448zM320 128h-128v512h128z" />
<glyph unicode="&#xe903;" glyph-name="orders" data-tags="orders" horiz-adv-x="832" d="M682.496 825.6v134.4h-682.496v-873.6h136.512v-134.4h682.496v873.6h-136.512zM750.72 19.2h-545.92v739.2h545.92v-739.2zM307.136 657.6h68.224v-67.2h-68.16zM443.648 657.6h204.736v-67.2h-204.8zM307.136 500.8h68.224v-67.2h-68.16zM443.648 500.8h204.736v-67.2h-204.8zM307.136 344h68.224v-67.2h-68.16zM443.648 344h204.736v-67.2h-204.8zM307.136 187.2h68.224v-67.2h-68.16zM443.648 187.2h204.736v-67.2h-204.8z" />
<glyph unicode="&#xe904;" glyph-name="reports" data-tags="reports" horiz-adv-x="755" d="M489.041 808.987v67.746h-40.637c-10.24 0-18.486 9.701-18.486 21.72 0 16.33-5.497 32.067-15.36 43.655-15.037 17.462-37.565 22.69-57.128 13.204-19.618-9.485-32.391-31.798-32.499-56.697 0-11.965-8.3-21.666-18.486-21.72h-40.96v-67.907h223.663zM507.527 765.602h-260.365c-5.278 0.089-9.967 2.535-13.072 6.329l-0.024 0.031c-3.42 4.088-5.497 9.403-5.497 15.202 0 0.037 0 0.073 0 0.11v-0.006 89.465h-228.568v-940.733h754.526v940.733h-228.46v-89.465c0-5.767-1.94-11.264-5.443-15.306-3.129-3.824-7.818-6.271-13.082-6.359h-0.015zM327.68 633.021h260.473c10.24 0 18.54-9.701 18.54-21.72 0-11.965-8.3-21.72-18.54-21.72h-260.419c-10.24 0-18.54 9.701-18.54 21.72s8.3 21.773 18.54 21.773zM327.68 459.318h260.473c10.24 0 18.54-9.701 18.54-21.72 0-11.965-8.3-21.72-18.54-21.72h-260.419c-10.24 0-18.54 9.701-18.54 21.72s8.3 21.72 18.54 21.72zM152.307 105.768c6.575 9.108 18.163 10.24 25.923 2.587l15.36-15.091 27.702 38.481c6.629 8.893 18.163 9.917 25.869 2.264 4.058-4.34 6.55-10.189 6.55-16.62 0-5.125-1.583-9.881-4.286-13.805l0.053 0.082-39.613-54.865c-6.575-9.108-18.109-10.24-25.869-2.587l-29.427 29.103c-4.070 4.327-6.571 10.171-6.571 16.599 0 5.16 1.612 9.944 4.359 13.876l-0.052-0.079v0.054zM152.307 279.471c6.575 9.108 18.109 10.24 25.923 2.695l15.36-15.252 27.702 38.535c6.575 9.162 18.216 10.24 25.977 2.533 4.041-4.336 6.521-10.173 6.521-16.589 0-5.208-1.634-10.033-4.417-13.993l0.052 0.078-39.613-54.973c-6.575-9-18.109-10.132-25.869-2.533l-29.373 29.103c-4.070 4.327-6.571 10.171-6.571 16.599 0 5.16 1.612 9.944 4.359 13.876l-0.052-0.079zM247.377 655.279c3.773-3.665 6.090-9 6.521-14.713 0.053-0.596 0.083-1.29 0.083-1.991 0-5.191-1.646-9.998-4.444-13.928l0.050 0.074-39.667-54.865c-6.575-9.054-18.109-10.24-25.869-2.587l-29.427 29.103c-4.636 4.296-7.528 10.417-7.528 17.213 0 1.21 0.092 2.398 0.268 3.558l-0.016-0.13c0.752 7.645 5.501 14.028 12.104 17.085l0.13 0.054c1.787 0.726 3.86 1.147 6.032 1.147 5.027 0 9.527-2.256 12.542-5.812l0.020-0.024 15.36-15.144 27.81 38.265c2.857 4.146 7.351 6.987 12.529 7.591l0.083 0.008c0.414 0.036 0.896 0.057 1.383 0.057 4.753 0 9.043-1.985 12.085-5.171l0.006-0.006-0.054 0.216zM152.36 453.174c6.521 9 18.001 10.24 25.816 2.641l15.36-15.091 27.648 38.481c6.629 8.893 18.163 9.917 25.869 2.264 4.058-4.34 6.55-10.189 6.55-16.62 0-5.125-1.583-9.881-4.286-13.805l0.053 0.082-39.451-54.919c-6.575-9.054-18.109-10.186-25.869-2.587l-29.427 29.103c-4.083 4.33-6.592 10.183-6.592 16.622 0 5.174 1.62 9.969 4.38 13.906l-0.052-0.078zM327.734 285.615h260.473c10.24 0 18.54-9.701 18.54-21.72s-8.3-21.72-18.54-21.72h-260.473c-10.24 0-18.54 9.701-18.54 21.72s8.3 21.72 18.54 21.72zM327.734 111.912h260.473c10.24 0 18.54-9.701 18.54-21.72s-8.3-21.72-18.54-21.72h-260.473c-10.24 0-18.54 9.701-18.54 21.72s8.3 21.72 18.54 21.72z" />
<glyph unicode="&#xe905;" horiz-adv-x="862" d="M431.158 538.328v-576.458l-369.556 95.933v310.434l288.876-14.929z" />
<glyph unicode="&#xe906;" horiz-adv-x="862" d="M776.677 575.407l-345.519 23.175 85.639-240.909 345.519 23.175z" />
<glyph unicode="&#xe907;" horiz-adv-x="862" d="M431.158 538.328l80.627-184.967 288.93 14.929v-309.517l-369.556-95.879z" />
<glyph unicode="&#xe908;" horiz-adv-x="862" d="M85.693 575.353l-85.693-194.56 345.573-23.175 85.585 241.017z" />
<glyph unicode="&#xe909;" horiz-adv-x="862" d="M615.963 869.672c0-49.907-41.391-90.381-92.429-90.381-50.984 0-92.376 40.421-92.376 90.381 0 49.853 41.391 90.328 92.376 90.328 50.984-0.054 92.322-40.475 92.429-90.328zM431.158 839.491c-0.393-33.334-27.507-60.205-60.897-60.205-0.267 0-0.533 0.002-0.799 0.005h0.040c-0.193-0.002-0.422-0.003-0.65-0.003-33.409 0-60.534 26.901-60.897 60.223v0.034c0.393 33.334 27.507 60.204 60.897 60.204 0.248 0 0.495-0.001 0.742-0.004h-0.038c0.178 0.002 0.387 0.003 0.597 0.003 33.43 0 60.58-26.888 61.004-60.217v-0.040zM615.963 658.513c-0.542-33.218-27.597-59.938-60.893-59.938-0.325 0-0.649 0.003-0.973 0.008l0.049-0.001c-0.161-0.002-0.351-0.002-0.541-0.002-33.446 0-60.595 26.961-60.898 60.336v0.029c0.454 33.287 27.544 60.097 60.896 60.097 0.248 0 0.496-0.001 0.744-0.004h-0.038c16.384 0 32.067-6.36 43.655-17.785 11.587-11.318 18.055-26.732 18.001-42.739zM492.76 718.983c-0.423-33.311-27.525-60.151-60.896-60.151-0.267 0-0.533 0.002-0.8 0.005h0.040c-0.193-0.002-0.422-0.003-0.65-0.003-33.409 0-60.534 26.901-60.897 60.223v0.034c0.393 33.334 27.507 60.204 60.897 60.204 0.248 0 0.495-0.001 0.742-0.004h-0.038c0.177 0.002 0.387 0.003 0.597 0.003 33.449 0 60.611-26.918 61.005-60.274v-0.037zM307.955 658.836c-0.363-33.357-27.489-60.258-60.898-60.258-0.248 0-0.495 0.001-0.741 0.004h0.037c-0.177-0.002-0.387-0.003-0.596-0.003-33.408 0-60.534 26.9-60.897 60.223v0.035c0.394 33.333 27.508 60.203 60.897 60.203 0.191 0 0.382-0.001 0.572-0.003h-0.029c34.008 0 61.548-26.947 61.602-60.2z" />
<glyph unicode="&#xe90a;" glyph-name="tools" data-tags="tools" horiz-adv-x="964" d="M34.816-21.594c-46.381 52.224-46.381 136.132 0 188.416l224.979 249.736 55.296-61.44 309.85 342.92v126.012l228.954 127.096 57.464-63.789-114.568-252.808h-114.447l-309.911-342.859 57.404-63.789-224.979-249.675c-47.164-51.682-123-51.622-170.044 0.181zM762.398 70.445l-258.47 288.045-42.466-47.104 266.481-295.755c32.949-34.575 84.691-33.732 116.736 1.928 31.985 35.659 32.648 93.064 1.446 129.566l-266.481 295.755-42.466-47.044 259.554-288.105c4.557-4.973 7.35-11.629 7.35-18.936 0-0.077 0-0.154-0.001-0.23v0.012c0-7.228-2.65-14.216-7.349-19.215-4.201-4.417-10.122-7.164-16.684-7.164-7.073 0-13.401 3.191-17.622 8.213l-0.029 0.035zM211.908 531.607c2.055 0.151 4.451 0.237 6.867 0.237 30.416 0 57.645-13.647 75.898-35.151l0.119-0.143 39.514-43.851 42.466 47.164-53.308 59.091c-4.45 5.107-7.163 11.829-7.163 19.185s2.713 14.078 7.193 19.22l-0.030-0.035c4.201 4.88 10.385 7.951 17.288 7.951s13.087-3.071 17.262-7.921l0.025-0.030 53.308-59.151 42.466 47.164-33.551 37.165c-20.056 22.407-32.317 52.157-32.317 84.77 0 4.874 0.274 9.684 0.807 14.415l-0.053-0.58c7.469 70.776-17.227 140.951-65.958 187.332-48.67 46.381-115.049 62.825-176.851 43.791-3.8-1.246-6.659-4.366-7.516-8.238l-0.014-0.074c-0.236-0.913-0.371-1.961-0.371-3.041 0-3.203 1.191-6.129 3.154-8.357l-0.012 0.014 75.535-84.329c11.445-12.469 17.769-29.455 17.769-47.164s-6.385-34.635-17.769-47.044l-35.539-39.454c-10.346-11.945-25.474-19.511-42.373-19.697h-0.032c-16.931 0.186-32.059 7.751-42.345 19.626l-0.060 0.071-72.282 79.992c-1.813 2.163-4.517 3.528-7.539 3.528-0.984 0-1.934-0.145-2.831-0.414l0.070 0.018c-3.81-1.273-6.661-4.444-7.457-8.361l-0.012-0.072c-12.348-71.379 7.951-144.926 54.272-196.307 39.454-44.574 94.931-67.102 151.010-61.38l0.361 0.060z" />
<glyph unicode="&#xe90b;" glyph-name="employees" data-tags="employees" horiz-adv-x="1084" d="M542.118 214.588c73.848 0 134.325 135.529 134.325 232.087 7.048 59.392-16.866 118.061-61.38 150.287-20.092 15.102-45.458 24.185-72.945 24.185s-52.853-9.083-73.259-24.411l0.315 0.226c-44.514-32.226-68.427-90.955-61.38-150.287 0-96.557 60.476-232.087 134.325-232.087zM237.207 688.941c55.838 0 101.496 90.353 101.496 154.383 2.831 61.259-42.526 113.423-101.557 116.676-59.031-3.253-104.328-55.416-101.496-116.676 0-64.030 45.658-154.383 101.557-154.383zM779.324 688.941c55.597 0 101.135 90.473 101.135 154.564 0.349 3.256 0.549 7.032 0.549 10.856 0 37.229-18.9 70.044-47.629 89.373l-0.385 0.244c-15.135 10.035-33.72 16.010-53.7 16.010s-38.565-5.975-54.064-16.237l0.364 0.227c-32.828-21.323-51.2-60.235-47.465-100.472 0.060-64.090 45.538-154.564 101.195-154.564zM837.813 145.86c-53.192 26.725-115.43 50.229-180.303 67.218l-6.788 1.51-108.604-75.595-108.604 75.595c-71.682-18.474-133.942-41.959-192.825-71.219l5.674 2.551c-28.491-25.72-39.213-111.014-43.068-162.334-0.021-0.47-0.033-1.022-0.033-1.576 0-10.666 4.394-20.306 11.47-27.209l0.008-0.008c7.133-6.952 16.892-11.24 27.652-11.24 0.592 0 1.181 0.013 1.766 0.039l-0.083-0.003h595.968c0.502-0.023 1.091-0.036 1.683-0.036 10.76 0 20.519 4.288 27.66 11.248l-0.008-0.008c7.084 6.91 11.477 16.55 11.477 27.217 0 0.554-0.012 1.106-0.035 1.654l0.003-0.078c-3.855 51.32-14.577 136.674-43.068 162.274zM340.631 471.191c-0.422 52.284 23.492 102.4 65.958 138.421-23.793 6.385-42.466 11.565-42.466 11.565l-88.365-57.163-88.425 56.44c-52.706-12.288-103.785-29.515-152.456-51.32-21.876-33.73-34.882-74.975-34.882-119.257 0-0.554 0.002-1.107 0.006-1.66v0.085c-0.031-0.482-0.048-1.045-0.048-1.613 0-8.022 3.5-15.226 9.056-20.169l0.027-0.024c6.024-5.371 14.011-8.652 22.765-8.652 0.573 0 1.144 0.014 1.71 0.042l-0.080-0.003h314.549c-4.415 15.942-7.041 34.278-7.227 53.198l-0.001 0.11zM896.783 621.176l-88.546-56.621-88.425 56.621s-17.83-4.337-42.165-11.625c42.345-35.84 66.138-85.775 65.717-137.939-0.181-18.071-2.59-36.141-7.288-53.73h314.79c9.035-0.181 17.769 3.012 24.094 8.794 5.679 5.065 9.238 12.404 9.238 20.574 0 0.391-0.008 0.78-0.024 1.166l0.002-0.055c0.019 1.075 0.030 2.342 0.030 3.612 0 43.741-13.001 84.445-35.35 118.459l0.504-0.817c-43.174 20.026-94.047 37.719-146.869 50.404l-5.707 1.157z" />
<glyph unicode="&#xe90c;" glyph-name="dashboard" data-tags="path-5" horiz-adv-x="951" d="M0 362.642h426.642v597.358h-426.642v-597.358zM0-64h426.642v341.358h-426.642v-341.358zM524.215-64h426.642v597.358h-426.642v-597.358zM524.215 960v-341.358h426.642v341.358h-426.642z" />
<glyph unicode="&#xe90d;" glyph-name="notification" data-tags="notification" horiz-adv-x="843" d="M421.647-59.121c0.125-0.001 0.274-0.001 0.422-0.001 57.8 0 104.672 46.788 104.809 104.556v0.013h-210.462c0.102-57.807 46.988-104.63 104.809-104.63 0.148 0 0.297 0 0.445 0.001h-0.023zM737.28 254.464v261.301c0 160.708-86.016 294.792-236.725 330.33v35.539c0 43.369-35.238 78.366-78.908 78.366s-78.908-34.997-78.908-78.366v-35.539c-150.709-35.539-236.725-169.623-236.725-330.33v-261.301l-105.171-104.508v-52.284h841.608v52.284l-105.171 104.508z" />
<glyph unicode="&#xe90e;" glyph-name="shop" data-tags="shop" horiz-adv-x="1152" d="M647.552 406.912v-182.4h247.488v182.4zM1150.592 634.816c0.001 0.092 0.002 0.202 0.002 0.311 0 4.952-1.406 9.576-3.841 13.494l0.063-0.109-171.136 297.216c-4.992 8.483-14.059 14.097-24.441 14.144h-752.199c-0.040 0-0.088 0-0.135 0-10.362 0-19.409-5.636-24.241-14.009l-0.072-0.135-170.752-297.216c-2.342-3.922-3.758-8.635-3.84-13.673v-0.023c0-66.624 40.704-123.776 98.752-149.12v-490.112c0-15.36 12.672-27.904 28.16-27.904h896.512c0 0 0.001 0 0.001 0 15.462 0 28.014 12.462 28.159 27.89v486.67c0 1.152 0 2.112-0.192 3.008 58.612 25.506 98.91 82.795 99.2 149.531v0.037zM530.432 23.424v364.672h-275.392v-364.928h-99.904v448.896c3.328-0.256 6.592-0.256 9.92-0.256 56.896 0 107.2 28.544 136.832 72 30.201-43.719 80.044-72 136.493-72 0.119 0 0.239 0 0.358 0h-0.019c0.041 0 0.089 0 0.137 0 56.508 0 106.412 28.276 136.335 71.451l0.36 0.549c30.174-43.716 79.996-72 136.425-72 0.053 0 0.106 0 0.16 0h-0.008c56.896 0 106.944 28.544 136.576 72 30.201-43.719 80.044-72 136.493-72 0.142 0 0.284 0 0.425 0.001h-0.022c3.328 0 6.4 0.256 9.6 0.256v-448.64h-464.768z" />
<glyph unicode="&#xe90f;" glyph-name="top-nav" data-tags="group-13" horiz-adv-x="1073" d="M48.762 465.896h170.667c13.465 0 24.381-10.916 24.381-24.381s-10.916-24.381-24.381-24.381h-170.667c-13.465 0-24.381 10.916-24.381 24.381s10.916 24.381 24.381 24.381zM451.048 465.896h170.667c13.465 0 24.381-10.916 24.381-24.381s-10.916-24.381-24.381-24.381h-170.667c-13.465 0-24.381 10.916-24.381 24.381s10.916 24.381 24.381 24.381zM853.333 465.896h170.667c13.465 0 24.381-10.916 24.381-24.381s-10.916-24.381-24.381-24.381h-170.667c-13.465 0-24.381 10.916-24.381 24.381s10.916 24.381 24.381 24.381zM980.699 623.543l2.731 228.547c0 49.25-39.985 89.381-89.381 89.381h-715.191c-49.25 0-89.381-39.985-89.381-89.381l0.244-228.547h89.088v228.547h715.191l-2.438-228.547h89.088zM980.699 267.971l2.731-230.839c0-49.25-39.985-89.381-89.381-89.381h-715.191c-49.25 0-89.381 39.985-89.381 89.381l0.293 230.839h89.088v-230.839h715.191l-2.438 230.839h89.088z" />
<glyph unicode="&#xe910;" glyph-name="menu-bar" data-tags="menu-2" horiz-adv-x="1463" d="M1403.758 510.537h-1344.658c-32.64 0-59.099-26.46-59.099-59.099s26.46-59.099 59.099-59.099h1344.658c32.64 0 59.099 26.46 59.099 59.099s-26.46 59.099-59.099 59.099v0zM1403.758 958.757h-1344.658c-32.64 0-59.099-26.46-59.099-59.099s26.46-59.099 59.099-59.099v0h1344.658c32.64 0 59.099 26.46 59.099 59.099s-26.46 59.099-59.099 59.099v0zM1403.758 62.318h-1344.658c-32.64 0-59.099-26.46-59.099-59.099s26.46-59.099 59.099-59.099h1344.658c32.64 0 59.099 26.46 59.099 59.099s-26.46 59.099-59.099 59.099v0z" />
<glyph unicode="&#xe911;" glyph-name="calendar" data-tags="calendar" d="M51.2 768c0 56.32 46.080 102.4 102.4 102.4h716.8c56.554 0 102.4-45.846 102.4-102.4v0-716.8c0-56.554-45.846-102.4-102.4-102.4v0h-716.8c-56.554 0-102.4 45.846-102.4 102.4v0 716.8zM153.6 665.6v-614.4h716.8v614.4h-716.8zM256 972.8h102.4v-102.4h-102.4v102.4zM665.6 972.8h102.4v-102.4h-102.4v102.4zM256 512h102.4v-102.4h-102.4v102.4zM256 307.2h102.4v-102.4h-102.4v102.4zM460.8 512h102.4v-102.4h-102.4v102.4zM460.8 307.2h102.4v-102.4h-102.4v102.4zM665.6 512h102.4v-102.4h-102.4v102.4zM665.6 307.2h102.4v-102.4h-102.4v102.4z" />
<glyph unicode="&#xe912;" glyph-name="catalogue" data-tags="noun-catalogue-1626831" horiz-adv-x="1365" d="M116.122 546.099l-75.844-46.899c-39.595-24.576-44.1-70.451-9.967-102.127l391.851-363.793c1.502-1.365 3.209-2.526 4.779-3.823l-303.036 500.19c-2.575 4.476-5.208 9.865-7.502 15.429l-0.349 0.955zM276.753 644.949c-5.356 14.123-8.628 30.447-9.008 47.484l-0.003 0.166-72.226-27.716c-43.486-16.657-59.597-63.010-35.703-103.014l312.661-524.083c11.674-19.456 31.198-35.089 53.248-45.056-9.209 11.54-16.863 24.863-22.327 39.264l-0.338 1.014-226.304 612.011zM487.561 216.371l36.25 618.974-142.199-43.827c-41.437-12.657-71.058-50.556-71.058-95.373 0-13.095 2.529-25.6 7.125-37.052l-0.237 0.67 170.121-443.392zM1157.598 785.374l-406.869 23.757 204.8-104.585zM716.39 779.162l-10.24-174.353 197.222 78.916zM725.129 566.784l459.708-26.829-231.424 118.17zM1202.859 578.321l10.718 183.842-207.94-83.149zM1280.819 918.767l-622.797 36.318c-1.462 0.087-3.171 0.137-4.892 0.137-0.008 0-0.016 0-0.024 0h0.001l2.048 0.137c-44.305 0-83.968-35.021-86.562-79.872l-45.056-769.092c-2.731-46.49 33.109-86.699 79.599-89.429l627.712-36.523c44.373 0 81.92 34.953 84.514 79.804l45.056 769.024c0.084 1.413 0.132 3.065 0.132 4.729 0 45.061-35.124 81.919-79.488 84.688l-0.243 0.012zM761.993 162.509c-2.040-33.471-29.684-59.844-63.488-59.844-35.125 0-63.599 28.474-63.599 63.599 0 1.321 0.040 2.632 0.12 3.933l-0.009-0.179c2.040 33.471 29.684 59.844 63.488 59.844 35.125 0 63.599-28.474 63.599-63.599 0-1.321-0.040-2.632-0.12-3.933l0.009 0.179zM1206.613 240.333h-1.297l-539.785 31.744c-11.134 0.686-19.903 9.883-19.903 21.129 0 11.69 9.476 21.166 21.166 21.166 0.444 0 0.885-0.014 1.323-0.041l-0.060 0.003 539.785-31.744c11.425-0.342 20.557-9.686 20.557-21.163 0-11.693-9.479-21.172-21.172-21.172-0.216 0-0.431 0.003-0.646 0.010l0.031-0.001zM1206.613 324.983h-1.297l-539.716 31.744c-11.152 0.686-19.937 9.898-19.937 21.163 0 11.709 9.492 21.2 21.2 21.2 0.444 0 0.885-0.014 1.323-0.041l-0.060 0.003 539.785-31.812c11.425-0.342 20.557-9.686 20.557-21.163 0-11.693-9.479-21.172-21.172-21.172-0.216 0-0.431 0.003-0.646 0.010l0.031-0.001zM1206.613 409.634h-1.365l-529.135 31.812c-11.134 0.686-19.903 9.883-19.903 21.129 0 11.69 9.476 21.166 21.166 21.166 0.444 0 0.885-0.014 1.323-0.041l-0.060 0.003 529.203-31.744c11.425-0.342 20.557-9.686 20.557-21.163 0-11.693-9.479-21.172-21.172-21.172-0.216 0-0.431 0.003-0.646 0.010l0.031-0.001zM1242.795 536.61c-1.374-22.337-19.826-39.932-42.386-39.932-0.819 0-1.633 0.023-2.44 0.069l0.112-0.005-496.572 29.013c-22.308 1.407-39.867 19.844-39.867 42.383 0 0.844 0.025 1.683 0.073 2.515l-0.005-0.115 14.199 243.029c1.444 22.275 19.865 39.796 42.378 39.796 0.822 0 1.638-0.023 2.449-0.069l-0.112 0.005 496.64-28.945c23.211-1.365 41.097-21.504 39.731-44.783l-14.131-243.029z" />
<glyph unicode="&#xe913;" glyph-name="group" data-tags="group" horiz-adv-x="1260" d="M1217.221 642.639h-1123.801c-23.818 0-43.126 19.308-43.126 43.126s19.308 43.126 43.126 43.126v0h1123.801c23.818 0 43.126-19.308 43.126-43.126s-19.308-43.126-43.126-43.126v0zM43.087-54.548c-0.001 0-0.002 0-0.004 0-23.602 0-42.772 18.978-43.083 42.506v910.523c1.416 22.734 20.2 40.635 43.166 40.635s41.749-17.902 43.159-40.512l0.006-0.124v-910.494c-0.355-23.611-19.578-42.614-43.24-42.614-0.002 0-0.003 0-0.005 0v0zM1217.221-54.548c0 0 0 0 0 0-23.828 0-43.154 19.271-43.244 43.078v909.794c1.416 22.734 20.2 40.635 43.166 40.635s41.749-17.902 43.159-40.512l0.006-0.124v-910.257c-0.267-23.592-19.454-42.614-43.084-42.614-0.001 0-0.002 0-0.003 0v0zM1217.221 121.895h-1123.801c-23.796 0-43.087 19.291-43.087 43.087s19.291 43.087 43.087 43.087h1123.801c23.796 0 43.087-19.291 43.087-43.087s-19.291-43.087-43.087-43.087v0zM647.247 504.162c0.094-0.733 0.147-1.581 0.147-2.442s-0.053-1.709-0.157-2.541l0.010 0.099v-143.36c0-15.183-12.308-27.49-27.49-27.49s-27.49 12.308-27.49 27.49v0 143.754c-0.067 0.743-0.105 1.608-0.105 2.481s0.038 1.738 0.112 2.592l-0.008-0.111h-147.456v-350.996h351.311v350.523h-148.874z" />
<glyph unicode="&#xe914;" glyph-name="categories" data-tags="noun-categories-1778812" d="M274.59 950.705h-240.876c-0.166 0.004-0.362 0.007-0.558 0.007-13.181 0-23.867-10.686-23.867-23.867 0-0.196 0.002-0.392 0.007-0.587l-0.001 0.029v-242.058c0-13.942 10.476-24.418 24.418-24.418h242.058c13.942 0 24.418 10.476 24.418 24.418v242.058c-0.215 13.538-11.24 24.431-24.809 24.431-0.278 0-0.555-0.005-0.831-0.014l0.040 0.001zM632.99 950.705h-241.979c-0.166 0.004-0.362 0.007-0.558 0.007-13.181 0-23.867-10.686-23.867-23.867 0-0.196 0.002-0.392 0.007-0.587l-0.001 0.029v-242.058c0-13.942 10.398-24.418 24.418-24.418h241.979c14.021 0 24.418 10.476 24.418 24.418v242.058c-0.089 13.45-10.968 24.33-24.41 24.418h-0.008zM274.59 593.487h-240.876c-0.166 0.004-0.362 0.007-0.558 0.007-13.181 0-23.867-10.686-23.867-23.867 0-0.196 0.002-0.392 0.007-0.587l-0.001 0.029v-242.058c0-14.021 10.476-24.418 24.418-24.418h242.058c13.942 0 24.418 10.398 24.418 24.418v241.979c0 12.839-11.579 24.418-25.6 24.418zM632.99 593.487h-241.979c-0.166 0.004-0.362 0.007-0.558 0.007-13.181 0-23.867-10.686-23.867-23.867 0-0.196 0.002-0.392 0.007-0.587l-0.001 0.029v-242.058c0-14.021 10.398-24.418 24.418-24.418h241.979c14.021 0 24.418 10.398 24.418 24.418v241.979c-0.501 13.279-11.139 23.917-24.372 24.417l-0.047 0.001zM990.287 950.705h-240.876c-0.166 0.004-0.362 0.007-0.558 0.007-13.181 0-23.867-10.686-23.867-23.867 0-0.196 0.002-0.392 0.007-0.587l-0.001 0.029v-242.058c0-13.942 10.398-24.418 24.418-24.418h241.979c14.021 0 24.418 10.476 24.418 24.418v242.058c-0.648 13.603-11.82 24.39-25.518 24.418h-0.003zM990.287 593.487h-240.876c-0.166 0.004-0.362 0.007-0.558 0.007-13.181 0-23.867-10.686-23.867-23.867 0-0.196 0.002-0.392 0.007-0.587l-0.001 0.029v-242.058c0-14.021 10.398-24.418 24.418-24.418h241.979c14.021 0 24.418 10.398 24.418 24.418v241.979c-1.103 12.839-11.579 24.418-25.521 24.418zM274.59 236.19h-240.876c-0.166 0.004-0.362 0.007-0.558 0.007-13.181 0-23.867-10.686-23.867-23.867 0-0.196 0.002-0.392 0.007-0.587l-0.001 0.029v-242.058c0-13.942 10.476-24.418 24.418-24.418h242.058c13.942 0 24.418 10.476 24.418 24.418v240.876c-0.132 14.085-11.515 25.468-25.587 25.6h-0.013zM632.99 236.19h-241.979c-0.166 0.004-0.362 0.007-0.558 0.007-13.181 0-23.867-10.686-23.867-23.867 0-0.196 0.002-0.392 0.007-0.587l-0.001 0.029v-242.058c0-13.942 10.398-24.418 24.418-24.418h241.979c14.021 0 24.418 10.476 24.418 24.418v240.876c0 14.021-11.579 25.6-24.418 25.6zM990.287 236.19h-240.876c-0.166 0.004-0.362 0.007-0.558 0.007-13.181 0-23.867-10.686-23.867-23.867 0-0.196 0.002-0.392 0.007-0.587l-0.001 0.029v-242.058c0-13.942 10.398-24.418 24.418-24.418h241.979c14.021 0 24.418 10.476 24.418 24.418v240.876c-1.103 14.021-11.579 25.6-25.521 25.6z" />
<glyph unicode="&#xe915;" glyph-name="clock" data-tags="clock" d="M512 960c-282.77 0-512-229.23-512-512s229.23-512 512-512v0c282.77 0 512 229.23 512 512s-229.23 512-512 512v0zM547.328 385.408c0-1.344-0.192-2.688-0.384-4.032-0.128-1.024-0.192-2.048-0.448-3.072-0.192-1.024-0.64-2.048-0.96-3.072-0.384-1.28-0.768-2.496-1.28-3.648-0.128-0.192-0.128-0.448-0.192-0.64-0.868-1.807-1.763-3.338-2.765-4.79l0.077 0.118-0.192-0.256c-1.171-1.667-2.39-3.13-3.718-4.486l0.006 0.006-1.152-1.088c-1.127-1.101-2.338-2.129-3.618-3.070l-0.094-0.066-1.28-0.896c-1.5-1.013-3.222-1.974-5.025-2.79l-0.223-0.090-1.28-0.384c-3.784-1.564-8.174-2.498-12.776-2.56h-0.024l-1.344 0.192c-2.158 0.047-4.231 0.277-6.243 0.678l0.227-0.038c-0.64 0.128-1.28 0.384-1.856 0.576-2.075 0.528-3.844 1.141-5.544 1.882l0.232-0.090c-0.192 0.128-0.384 0.128-0.64 0.192l-196.224 92.608c-12.102 5.804-20.31 17.959-20.31 32.032 0 19.559 15.856 35.414 35.414 35.414 5.486 0 10.681-1.248 15.317-3.474l-0.213 0.092 145.856-68.736v305.6c0 19.546 15.846 35.392 35.392 35.392s35.392-15.846 35.392-35.392v0-362.112z" />
<glyph unicode="&#xe917;" glyph-name="allowence" data-tags="allowence" horiz-adv-x="1216" d="M1177.664 170.624c-0.187-7.858-5.477-14.431-12.675-16.545l-0.125-0.031-485.76-169.28c-15.424-5.12-31.616-7.68-47.872-7.36-15.048 0.021-29.617 2.028-43.473 5.773l1.169-0.269-327.616 97.536v318.336h23.936c87.154-0.773 167.582-28.934 233.262-76.278l-1.198 0.822c44.16-11.072 266.816 46.016 252.096-92.032-1.724-16.719-7.679-31.777-16.764-44.436l0.188 0.276 55.232-3.712 244.736 77.312c9.176 3.284 19.762 5.182 30.792 5.182 51.959 0 94.080-42.121 94.080-94.080 0-0.427-0.003-0.853-0.009-1.278l0.001 0.065zM224.512 442.944v-382.72c-0.672-9.898-8.535-17.76-18.371-18.429l-0.061-0.003h-187.648c-9.898 0.672-17.76 8.535-18.429 18.371l-0.003 0.061v382.72c0 10.24 8.256 18.432 18.432 18.432h187.648c10.18 0 18.432-8.252 18.432-18.432v0zM658.688 779.648v-77.312c-25.6 7.36-42.304 14.72-42.304 40.512 0 22.080 20.224 34.944 42.304 36.8zM736 599.296c0-23.936-22.080-34.944-46.016-38.4v78.912c25.6-5.504 46.016-14.72 46.016-40.512zM671.616 960h-1.856c-164.739-0.528-298.081-134.196-298.081-299.008 0-165.138 133.871-299.009 299.009-299.009 0.326 0 0.652 0.001 0.978 0.002h1.806c163.684 1.447 295.864 134.278 296.256 298.074v1.894c0.002 0.362 0.003 0.79 0.003 1.219 0 163.936-132.896 296.832-296.832 296.832-0.451 0-0.901-0.001-1.352-0.003h0.069zM690.048 514.688v-31.296h-27.584v33.152c-42.24 4.045-79.78 21.505-108.955 48.010l0.155-0.138 31.296 38.4c21.568-19.904 48.384-33.28 77.312-38.4v86.464c-55.232 12.8-97.536 31.296-97.536 88.32 1.431 50.135 42.415 90.232 92.764 90.232 1.138 0 2.271-0.020 3.399-0.061l-0.163 0.005v21.824h27.584v-22.080c34.813-2.247 66.419-14.341 92.521-33.494l-0.489 0.342-27.584-40.512c-17.58 12.917-38.78 21.977-61.803 25.501l-0.789 0.099v-82.816h1.856c57.024-12.8 99.392-33.152 99.392-90.176-1.998-52.044-44.671-93.477-97.021-93.477-1.554 0-3.1 0.037-4.636 0.109l0.217-0.008h0.064z" />
<glyph unicode="&#xe918;" d="M512 960c-282.944 0-512-228.992-512-512 0-282.944 228.992-512 512-512 282.944 0 512 228.992 512 512 0 282.944-228.992 512-512 512z" />
<glyph unicode="&#xe919;" d="M576 156.416c0-35.346-28.654-64-64-64s-64 28.654-64 64c0 35.346 28.654 64 64 64s64-28.654 64-64z" />
<glyph unicode="&#xe91a;" d="M512 675.584c-94.080 0-170.688-68.096-170.688-151.68 0-20.992 19.136-37.952 42.688-37.952s42.688 16.96 42.688 37.888c0 41.856 38.272 75.84 85.312 75.84s85.312-33.984 85.312-75.84c0-41.792-38.272-75.84-85.312-75.84-23.552 0-42.688-16.96-42.688-37.952v-94.784c0-20.928 19.136-37.952 42.688-37.952s42.688 17.024 42.688 37.952v61.696c73.536 16.896 128 76.352 128 146.88 0 83.648-76.608 151.68-170.688 151.68z" />
<glyph unicode="&#xe91b;" horiz-adv-x="862" d="M431.158 538.328v-576.458l-369.556 95.933v310.434l288.876-14.929z" />
<glyph unicode="&#xe91c;" horiz-adv-x="862" d="M776.677 575.407l-345.519 23.175 85.639-240.909 345.519 23.175z" />
<glyph unicode="&#xe91d;" horiz-adv-x="862" d="M431.158 538.328l80.627-184.967 288.93 14.929v-309.517l-369.556-95.879z" />
<glyph unicode="&#xe91e;" horiz-adv-x="862" d="M85.693 575.353l-85.693-194.56 345.573-23.175 85.585 241.017z" />
<glyph unicode="&#xe91f;" horiz-adv-x="862" d="M615.963 869.672c0-49.907-41.391-90.381-92.429-90.381-50.984 0-92.376 40.421-92.376 90.381 0 49.853 41.391 90.328 92.376 90.328 50.984-0.054 92.322-40.475 92.429-90.328zM431.158 839.491c-0.393-33.334-27.507-60.205-60.897-60.205-0.267 0-0.533 0.002-0.799 0.005h0.040c-0.193-0.002-0.422-0.003-0.65-0.003-33.409 0-60.534 26.901-60.897 60.223v0.034c0.393 33.334 27.507 60.204 60.897 60.204 0.248 0 0.495-0.001 0.742-0.004h-0.038c0.178 0.002 0.387 0.003 0.597 0.003 33.43 0 60.58-26.888 61.004-60.217v-0.040zM615.963 658.513c-0.542-33.218-27.597-59.938-60.893-59.938-0.325 0-0.649 0.003-0.973 0.008l0.049-0.001c-0.161-0.002-0.351-0.002-0.541-0.002-33.446 0-60.595 26.961-60.898 60.336v0.029c0.454 33.287 27.544 60.097 60.896 60.097 0.248 0 0.496-0.001 0.744-0.004h-0.038c16.384 0 32.067-6.36 43.655-17.785 11.587-11.318 18.055-26.732 18.001-42.739zM492.76 718.983c-0.423-33.311-27.525-60.151-60.896-60.151-0.267 0-0.533 0.002-0.8 0.005h0.040c-0.193-0.002-0.422-0.003-0.65-0.003-33.409 0-60.534 26.901-60.897 60.223v0.034c0.393 33.334 27.507 60.204 60.897 60.204 0.248 0 0.495-0.001 0.742-0.004h-0.038c0.177 0.002 0.387 0.003 0.597 0.003 33.449 0 60.611-26.918 61.005-60.274v-0.037zM307.955 658.836c-0.363-33.357-27.489-60.258-60.898-60.258-0.248 0-0.495 0.001-0.741 0.004h0.037c-0.177-0.002-0.387-0.003-0.596-0.003-33.408 0-60.534 26.9-60.897 60.223v0.035c0.394 33.333 27.508 60.203 60.897 60.203 0.191 0 0.382-0.001 0.572-0.003h-0.029c34.008 0 61.548-26.947 61.602-60.2z" />
<glyph unicode="&#xe920;" glyph-name="branding" data-tags="noun-branding-2033337" horiz-adv-x="1084" d="M846.426 787.486l-248.651 1.687 1.687 157.274zM693.128 467.878h-512.602l257.205-162.455zM446.223 271.631c-5.12-3.373-11.927-3.373-18.733 0l-30.72 20.299-228.111-189.44h536.456l-228.171 187.753-30.72-18.673zM137.939 454.264v-331.475l228.232 187.753zM580.728 755.32c0 0 0 0 0 0-9.36 0-16.952 7.571-16.986 16.923v182.697h-531.396c-0.018 0-0.039 0-0.060 0-9.36 0-16.952-7.571-16.986-16.923v-935.337c0-10.12 8.553-16.866 17.047-16.866h808.96c10.24 0 17.047 6.746 17.047 16.866v750.953l-277.624 1.687zM258.891 850.071h197.572c10.18 0 16.986-6.746 16.986-16.866 0-10.24-6.807-16.986-17.047-16.986h-197.572c-10.18 0-16.986 6.807-16.986 16.926 0 10.18 6.807 16.866 17.047 16.866zM195.765 713.035h344.064c10.24 0 17.047-6.746 17.047-16.866 0-10.18-6.867-16.926-17.047-16.926h-344.064c-10.24 0-16.986 6.746-16.986 16.866 0 8.493 8.493 16.926 16.986 16.926zM195.765 596.36h482.003c10.24 0 17.047-6.746 17.047-16.866 0-10.24-6.807-16.986-17.047-16.986h-481.943c-10.24 0-16.986 6.807-16.986 16.926 0 8.433 8.493 16.926 16.986 16.926zM769.747 85.564c0-8.433-8.553-16.866-17.047-16.866h-630.061c-0.018 0-0.039 0-0.061 0-9.339 0-16.918 7.537-16.986 16.86v399.185c0 8.433 8.493 16.866 17.047 16.866h630.121c8.493 0 17.047-8.433 17.047-16.866v-399.179zM735.714 122.79v331.475l-228.171-143.721zM889.013 802.726l-1.687-556.454h185.645v553.080c-57.946-23.733-122.639-20.299-183.959 3.373zM892.386 212.48l71.56-196.247c5.12-15.24 27.226-15.24 32.346 0l71.56 196.186h-175.465zM1074.598 836.518v21.986c0 50.778-40.84 91.377-91.919 91.377h-3.433c-51.080 0-91.919-40.599-91.919-91.377v-18.613c91.919-38.852 160.045-16.866 187.332-3.373z" />
<glyph unicode="&#xe922;" glyph-name="balnce" data-tags="balnce" horiz-adv-x="1205" d="M990.027 799.834c8.746 12.341 13.981 27.707 13.981 44.296 0 42.615-34.546 77.161-77.161 77.161-30.935 0-57.618-18.204-69.921-44.485l-0.199-0.473h-166.189c-14.399 48.707-58.732 83.642-111.224 83.642s-96.825-34.935-111.016-82.823l-0.208-0.819h-166.249c-12.401 27.014-39.218 45.437-70.338 45.437-42.615 0-77.161-34.546-77.161-77.161 0-16.795 5.366-32.336 14.476-45.004l-0.157 0.23-168.659-444.838c3.707-121.686 103.24-218.921 225.483-218.921 2.195 0 4.383 0.031 6.563 0.094l-0.32-0.007c1.877-0.056 4.085-0.088 6.301-0.088 122.232 0 221.751 97.242 225.416 218.585l0.008 0.338-168.297 444.838c2.65 3.795 5 7.831 6.927 12.047h165.948c7.59-26.202 24.154-48.971 46.863-64.151v-721.016h-231.785c-0.322 0.019-0.699 0.030-1.079 0.030-10.679 0-19.336-8.657-19.336-19.336s8.657-19.336 19.336-19.336c0.379 0 0.756 0.011 1.131 0.032l-0.052-0.002h592.294c0.322-0.019 0.699-0.030 1.079-0.030 10.679 0 19.336 8.657 19.336 19.336s-8.657 19.336-19.336 19.336c-0.379 0-0.756-0.011-1.131-0.032l0.052 0.002h-231.725v721.137c22.332 15.132 38.909 37.296 46.652 63.267l0.211 0.823h166.189c1.988-4.216 4.277-8.252 6.987-12.047l-168.659-444.777c3.707-121.686 103.24-218.921 225.483-218.921 2.195 0 4.383 0.031 6.563 0.094l-0.32-0.007c1.877-0.056 4.085-0.088 6.301-0.088 122.232 0 221.751 97.242 225.416 218.585l0.008 0.338-168.478 444.717zM41.321 354.997l158.66 418.756c20.179-9.156 43.369-9.156 63.488 0l158.72-418.816-380.868 0.060zM736.437 354.997l158.66 418.756c20.179-9.156 43.369-9.156 63.488 0l158.66-418.756h-380.808z" />
<glyph unicode="&#xe923;" glyph-name="sales" data-tags="sales" horiz-adv-x="1084" d="M1036.529 12.077c-5.834-14.714-19.942-24.93-36.437-24.93-1.85 0-3.67 0.129-5.452 0.377l0.206-0.024c-38.731 0.964-77.523 0-116.254 0-1.112-0.134-2.399-0.211-3.705-0.211-18.031 0-32.648 14.617-32.648 32.648 0 1.305 0.077 2.593 0.226 3.858l-0.015-0.153v498.507c-0.14 1.132-0.219 2.443-0.219 3.773 0 17.997 14.59 32.587 32.587 32.587 1.33 0 2.641-0.080 3.928-0.234l-0.155 0.015c38.792 0 77.523-0.663 116.254 0 1.576 0.225 3.396 0.354 5.246 0.354 16.495 0 30.603-10.216 36.344-24.665l0.093-0.264v-521.638zM1036.529 726.648c-4.036-7.274-8.778-13.532-14.276-19.035v0c-5.167-3.75-11.635-5.998-18.628-5.998-16.86 0-30.667 13.069-31.843 29.629l-0.006 0.102c-3.554 30.479-6.927 60.958-12.469 93.244-0.782-1.984-1.571-3.63-2.459-5.212l0.11 0.212c-107.764-163.922-253.604-294.588-425.371-381.425l-6.275-2.877c-87.949-47.502-189.869-86.174-297.164-110.753l-8.229-1.586c-56.019-12.589-113.182-18.974-170.526-19.034-8.072 0-16.143 0.602-24.094 1.928-12.153 3.023-21.634 12.144-25.116 23.848l-0.063 0.246v16.203c6.453 14.303 20.588 24.078 37.007 24.078 2.547 0 5.039-0.235 7.456-0.685l-0.25 0.039c56.38-1.325 112.64 5 167.334 18.793 232.461 52.66 432.205 169.526 585.698 330.816l0.452 0.478c39.421 42.099 75.246 88.554 106.388 138.243l2.216 3.792c1.777 2.862 3.781 6.471 5.635 10.169l0.388 0.854c-3.795-0.723-6.024-1.024-8.614-1.687-33.672-9.577-67.283-19.456-101.015-28.672-3.2-1.179-6.896-1.861-10.751-1.861-17.665 0-31.985 14.32-31.985 31.985 0 2.128 0.208 4.208 0.604 6.22l-0.033-0.203c1.54 12.602 10.671 22.708 22.622 25.677l0.207 0.044c63.428 18.312 126.856 36.382 190.404 54.212 2.523 0.722 5.42 1.138 8.414 1.138 16.606 0 30.228-12.775 31.574-29.033l0.008-0.115c6.867-59.272 13.493-118.543 20.299-177.815 0.529-2.971 1.197-5.543 2.041-8.035l-0.113 0.385c0.301-6.084 0.422-12.228 0.422-18.312zM0 182.121c5.774 14.712 19.851 24.939 36.317 24.939 1.871 0 3.712-0.132 5.513-0.387l-0.207 0.024c39.032-1.024 78.306 0 117.218 0 0.909 0.090 1.966 0.141 3.034 0.141 18.031 0 32.648-14.617 32.648-32.648 0-1.281-0.074-2.544-0.217-3.786l0.014 0.151v-146.492c0.119-1.050 0.187-2.267 0.187-3.5 0-18.131-14.698-32.828-32.828-32.828-1.233 0-2.45 0.068-3.648 0.2l0.148-0.013c-38.731 0-77.463 0.663-116.194 0-1.588-0.229-3.421-0.359-5.285-0.359-16.486 0-30.585 10.221-36.306 24.671l-0.092 0.264c-0.181 56.32-0.301 112.821-0.301 169.623zM755.652 178.025v-151.853c0-26.504-12.047-38.43-38.069-38.49h-119.447c-1.219-0.159-2.628-0.25-4.059-0.25-18.23 0-33.009 14.779-33.009 33.009 0 1.469 0.096 2.915 0.282 4.333l-0.018-0.167v307.682c-0.112 1.020-0.176 2.204-0.176 3.402 0 18.164 14.725 32.888 32.888 32.888 1.101 0 2.19-0.054 3.264-0.16l-0.136 0.011h121.434c1.374 0.203 2.961 0.32 4.574 0.32 18.164 0 32.888-14.725 32.888-32.888 0-1.707-0.13-3.384-0.381-5.020l0.023 0.183v-152.877l-0.060-0.12zM280.877 118.573v94.088c-0.105 0.983-0.165 2.123-0.165 3.278 0 18.031 14.617 32.648 32.648 32.648 1.289 0 2.561-0.075 3.811-0.22l-0.152 0.014h120.471c1.411 0.209 3.040 0.329 4.697 0.329 18.63 0 33.732-15.102 33.732-33.732 0-1.582-0.109-3.138-0.319-4.661l0.020 0.176v-184.139c0.283-1.638 0.445-3.523 0.445-5.447 0-18.53-15.021-33.551-33.551-33.551-1.794 0-3.555 0.141-5.273 0.412l0.19-0.025h-120.471c-1.070-0.125-2.308-0.197-3.564-0.197-17.864 0-32.346 14.482-32.346 32.346 0 1.237 0.069 2.457 0.204 3.657l-0.013-0.147c-0.361 31.804-0.361 63.488-0.361 95.172z" />
<glyph unicode="&#xe925;" glyph-name="cart" data-tags="noun-cart-1827990" horiz-adv-x="1243" d="M566.376 107.448c11.156-68.743-36.303-133.64-106.003-144.951s-135.246 35.246-146.402 103.989c-11.156 68.743 36.303 133.64 106.003 144.951s135.246-35.246 146.402-103.989zM1028.712 107.448c11.156-68.743-36.303-133.64-106.003-144.951s-135.246 35.246-146.402 103.989c-11.156 68.743 36.303 133.64 106.003 144.951s135.246-35.246 146.402-103.989zM800.475 488.229c132.096 0 239.47 105.765 239.47 235.886 0 130.048-107.301 235.886-239.47 235.886-132.023 0-239.397-105.838-239.397-235.886 0-130.121 107.374-235.886 239.397-235.886zM716.581 751.762h57.783v56.978c0 13.458 11.118 24.357 24.795 24.357 13.605 0 24.722-10.971 24.722-24.357v-57.051h57.783c13.678 0 24.722-10.825 24.722-24.283-0.083-13.51-11.054-24.43-24.576-24.43-0.052 0-0.103 0-0.155 0h-57.775v-56.905c-0.083-13.51-11.054-24.43-24.576-24.43-0.052 0-0.103 0-0.155 0h0.008c-0.065-0.001-0.143-0.001-0.22-0.001-13.522 0-24.493 10.92-24.576 24.423v56.913h-57.783c-0.044 0-0.095 0-0.147 0-13.522 0-24.493 10.92-24.576 24.422v0.008c0 13.458 11.045 24.357 24.722 24.357zM1187.182 742.546c-4.593 5.638-11.533 9.211-19.309 9.216h-68.755c-0.087 0.001-0.19 0.002-0.294 0.002-13.496 0-24.452-10.879-24.575-24.347v-0.012c0-13.458 11.118-24.43 24.869-24.43h-10.459c-10.971-147.090-136.046-263.534-288.183-263.534s-277.138 116.443-288.11 263.534h-243.127l-37.157 175.397c-10.556 44.295-49.794 76.727-96.606 76.727-0.031 0-0.062 0-0.093 0h-109.417c-0.044 0-0.095 0-0.147 0-13.496 0-24.451-10.879-24.575-24.345v-0.012c0-13.458 11.045-24.43 24.722-24.43h109.422c23.113 0 43.447-16.091 48.274-38.107l105.765-499.273c12.701-55.894 61.965-96.988 120.828-96.988 0.079 0 0.157 0 0.236 0h576.134c0.284-0.002 0.621-0.004 0.957-0.004 57.612 0 105.964 39.648 119.258 93.147l0.178 0.845 84.846 355.84c0.433 1.71 0.681 3.673 0.681 5.694 0 5.726-1.994 10.987-5.326 15.125l0.036-0.047z" />
<glyph unicode="&#xe926;" glyph-name="extranal-link" data-tags="icons8-external-link" d="M886.8 857.933c-1.386-0.045-2.698-0.164-3.987-0.356l0.187 0.023h-200.333c-0.144 0.002-0.313 0.003-0.483 0.003-18.853 0-34.137-15.284-34.137-34.137s15.284-34.137 34.137-34.137c0.17 0 0.339 0.001 0.508 0.004h122.374l-351.333-351.333c-6.473-6.222-10.495-14.954-10.495-24.625 0-18.853 15.284-34.137 34.137-34.137 9.671 0 18.403 4.022 24.614 10.483l351.344 351.344v-122.4c-0.002-0.144-0.003-0.313-0.003-0.483 0-18.853 15.284-34.137 34.137-34.137s34.137 15.284 34.137 34.137c0 0.17-0.001 0.339-0.004 0.508v-0.026 200.467c0.205 1.405 0.322 3.028 0.322 4.677 0 18.853-15.284 34.137-34.137 34.137-0.346 0-0.692-0.005-1.036-0.015l0.050 0.001zM204.8 721.067c-37.31 0-68.267-30.957-68.267-68.267v-512c0-37.31 30.957-68.267 68.267-68.267h512c37.31 0 68.267 30.957 68.267 68.267v429.333l-68.267-68.267v-361.067h-512v512h361.067l68.267 68.267h-429.333z" />
<glyph unicode="&#xe986;" glyph-name="search" data-tags="search, magnifier, magnifying-glass, inspect, find" d="M992.262 88.604l-242.552 206.294c-25.074 22.566-51.89 32.926-73.552 31.926 57.256 67.068 91.842 154.078 91.842 249.176 0 212.078-171.922 384-384 384-212.076 0-384-171.922-384-384s171.922-384 384-384c95.098 0 182.108 34.586 249.176 91.844-1-21.662 9.36-48.478 31.926-73.552l206.294-242.552c35.322-39.246 93.022-42.554 128.22-7.356s31.892 92.898-7.354 128.22zM384 320c-141.384 0-256 114.616-256 256s114.616 256 256 256 256-114.616 256-256-114.614-256-256-256z" />
<glyph unicode="&#xea09;" glyph-name="question" data-tags="question, help, support" d="M448 256h128v-128h-128zM704 704c35.346 0 64-28.654 64-64v-192l-192-128h-128v64l192 128v64h-320v128h384zM512 864c-111.118 0-215.584-43.272-294.156-121.844s-121.844-183.038-121.844-294.156c0-111.118 43.272-215.584 121.844-294.156s183.038-121.844 294.156-121.844c111.118 0 215.584 43.272 294.156 121.844s121.844 183.038 121.844 294.156c0 111.118-43.272 215.584-121.844 294.156s-183.038 121.844-294.156 121.844zM512 960v0c282.77 0 512-229.23 512-512s-229.23-512-512-512c-282.77 0-512 229.23-512 512s229.23 512 512 512z" />
</font>
</defs>
</svg>
